<svg xmlns="http://www.w3.org/2000/svg" viewBox="0 0 32 32">
  <defs>
    <linearGradient id="g" x1="0%" y1="0%" x2="100%" y2="100%">
      <stop offset="0%" style="stop-color:#06b6d4"/>
      <stop offset="100%" style="stop-color:#6366f1"/>
    </linearGradient>
  </defs>
  <!-- 背景 -->
  <rect width="32" height="32" rx="6" fill="url(#g)"/>
  <!-- 云朵图标 -->
  <path d="M10 22c-2.2 0-4-1.8-4-4s1.8-4 4-4c0-2.8 2.2-5 5-5 1.8 0 3.4 1 4.2 2.5.4-.2.8-.3 1.3-.3 1.7 0 3 1.3 3 3 0 .2 0 .4-.1.6C24.6 15.3 26 17 26 19c0 2.2-1.8 4-4 4H10z" fill="#fff" opacity="0.95"/>
  <!-- 栈/阶梯线 -->
  <path d="M14 24l4-4 3 2 4-4" fill="none" stroke="#fff" stroke-width="1.2" stroke-linecap="round" stroke-linejoin="round" opacity="0.6"/>
</svg>
